<svg width="252" height="239" viewBox="0 0 252 239" fill="none" xmlns="http://www.w3.org/2000/svg">
<g opacity="0.7">
<path d="M112.14 69.8044L112.14 69.8044L112.142 69.8115C112.573 71.3409 112.442 72.9737 111.773 74.415C111.576 74.8268 111.298 75.1948 110.956 75.4973C110.612 75.8004 110.212 76.0312 109.777 76.1759L109.777 76.1759C109.343 76.3207 108.883 76.3764 108.427 76.3398C107.973 76.3033 107.531 76.1764 107.127 75.9664C105.919 75.2891 105.185 73.7285 105.076 71.9494C104.967 70.1724 105.5 68.401 106.553 67.4132L106.553 67.4132L106.557 67.4087C107.354 66.645 108.503 66.3686 109.565 66.6997C110.609 67.0255 111.648 67.9692 112.14 69.8044Z" fill="#EDF2F7" stroke="#808080" stroke-width="1.20193"/>
<path d="M172.721 99.1306L174.002 98.7442C177.325 97.7413 180.487 96.7846 183.489 95.8765C195.943 92.1092 205.625 89.1801 212.485 87.2742C212.361 87.1494 212.243 87.0148 212.132 86.8748C211.577 86.1769 211.067 85.1948 210.605 84.0533C209.68 81.7623 208.897 78.6914 208.367 75.589C207.837 72.4857 207.554 69.3122 207.644 66.8112C207.689 65.5645 207.828 64.4527 208.092 63.591C208.118 63.504 208.147 63.4176 208.177 63.3322C183.904 70.0978 170.993 73.7262 163.653 75.9552C156.147 78.2345 154.515 79.0363 152.528 80.211C150.684 81.3047 148.79 83.0842 145.237 87.2815C142.052 91.0428 137.575 96.697 130.643 105.451C129.85 106.452 129.026 107.494 128.167 108.578L128.056 108.718L127.886 108.775C125.585 109.543 110.442 115.916 105.757 117.981C106.557 120.718 106.609 124.641 105.844 128.569C105.059 132.603 103.393 136.745 100.676 139.69C102.66 142.839 105.103 145.673 107.923 148.101C108.561 146.911 109.114 145.676 109.58 144.408C109.774 143.854 110.101 143.325 110.556 143.077C110.805 142.941 111.123 142.878 111.448 143.002C111.757 143.121 111.966 143.371 112.102 143.637C112.367 144.153 112.477 144.957 112.437 146.038C112.406 146.868 112.284 147.906 112.04 149.185C113.042 148.633 114.094 148.173 115.182 147.813L115.217 147.801L115.253 147.794C115.409 147.763 115.691 147.751 116.001 147.743C116.337 147.735 116.776 147.731 117.289 147.732C118.315 147.733 119.656 147.748 121.102 147.77C122.37 147.789 123.719 147.813 125.012 147.836C126.671 147.866 128.238 147.894 129.425 147.908C129.426 147.908 129.427 147.908 129.428 147.908L129.421 148.509C131.23 148.509 132.155 150.482 123.693 151.231L172.721 99.1306ZM172.721 99.1306L173.86 99.8314C180.831 104.12 206.573 122.186 215.882 129.349M172.721 99.1306L215.882 129.349M215.882 129.349C215.717 129.41 215.553 129.482 215.393 129.563C214.585 129.968 213.723 130.651 212.856 131.499C211.117 133.199 209.256 135.666 207.659 138.267C206.063 140.867 204.705 143.641 203.994 145.965C203.639 147.124 203.433 148.208 203.458 149.119C203.46 149.207 203.465 149.294 203.472 149.381C195.545 144.435 170.81 128.341 164.574 124.284L163.925 123.861L163.593 123.645L163.263 123.865L160.6 125.646C161.072 123.734 161.598 121.089 162.11 118.343C162.517 116.159 162.919 113.886 163.281 111.844C163.518 110.504 163.738 109.265 163.929 108.215L162.784 107.875C158.989 116.928 154.611 125.724 149.674 134.208C146.748 138.977 143.575 143.241 140.159 146.418C136.762 149.578 133.161 151.627 129.351 152.071C128.233 151.925 127.074 151.76 125.923 151.584C126.528 151.499 127.068 151.407 127.549 151.309L215.882 129.349Z" fill="#EDF2F7" stroke="#808080" stroke-width="1.20193"/>
<path d="M90.9794 213.757L89.6865 206.426L93.1808 205.811L94.4737 213.142L90.9794 213.757Z" fill="#EDF2F7" stroke="#808080" stroke-width="1.20193"/>
<path d="M97.6144 212.607L96.3185 205.275L99.8137 204.657L101.11 211.99L97.6144 212.607Z" fill="#EDF2F7" stroke="#808080" stroke-width="1.20193"/>
<path d="M104.03 211.459L102.737 204.128L106.232 203.512L107.524 210.844L104.03 211.459Z" fill="#EDF2F7" stroke="#808080" stroke-width="1.20193"/>
<path d="M112.757 202.364L114.05 209.695L110.556 210.311L109.263 202.979L112.757 202.364Z" fill="#EDF2F7" stroke="#808080" stroke-width="1.20193"/>
<path d="M120.689 208.534L117.194 209.152L115.898 201.819L119.393 201.202L120.689 208.534Z" fill="#EDF2F7" stroke="#808080" stroke-width="1.20193"/>
<path d="M127.101 207.396L123.607 208.011L122.314 200.68L125.808 200.064L127.101 207.396Z" fill="#EDF2F7" stroke="#808080" stroke-width="1.20193"/>
<path d="M133.626 206.246L130.131 206.862L128.839 199.532L132.333 198.916L133.626 206.246Z" fill="#EDF2F7" stroke="#808080" stroke-width="1.20193"/>
<path d="M140.153 205.097L136.658 205.713L135.365 198.382L138.859 197.766L140.153 205.097Z" fill="#EDF2F7" stroke="#808080" stroke-width="1.20193"/>
<path d="M146.677 203.949L143.181 204.564L141.889 197.233L145.383 196.618L146.677 203.949Z" fill="#EDF2F7" stroke="#808080" stroke-width="1.20193"/>
<path d="M153.203 202.798L149.708 203.414L148.415 196.083L151.909 195.468L153.203 202.798Z" fill="#EDF2F7" stroke="#808080" stroke-width="1.20193"/>
<path d="M159.728 201.65L156.233 202.265L154.94 194.934L158.435 194.318L159.728 201.65Z" fill="#EDF2F7" stroke="#808080" stroke-width="1.20193"/>
<path d="M187.673 171.65L187.672 171.65C186.787 171.65 185.921 171.387 185.186 170.896L185.185 170.896C184.45 170.404 183.875 169.706 183.536 168.888C183.197 168.071 183.109 167.171 183.282 166.303C183.282 166.302 183.282 166.302 183.282 166.302L183.872 166.419C184.02 165.669 184.39 164.978 184.932 164.438L187.673 171.65ZM187.673 171.65C188.859 171.648 189.996 171.177 190.836 170.339L190.837 170.338C191.675 169.499 192.146 168.363 192.148 167.176V167.176C192.148 166.291 191.885 165.426 191.394 164.69L191.394 164.69M187.673 171.65L191.394 164.69M191.394 164.69C190.902 163.955 190.203 163.381 189.385 163.042C188.567 162.703 187.667 162.615 186.799 162.788L191.394 164.69ZM198.771 169.535C198.099 169.444 197.454 169.201 196.886 168.822L196.885 168.822C196.15 168.33 195.576 167.632 195.237 166.814C194.898 165.997 194.81 165.097 194.983 164.229C194.983 164.228 194.983 164.228 194.983 164.228L195.572 164.345L198.771 169.535ZM198.771 169.535V169.582L199.373 169.581C200.561 169.579 201.699 169.107 202.538 168.267C203.377 167.427 203.848 166.289 203.848 165.102C203.848 164.217 203.585 163.352 203.095 162.616L203.094 162.616C202.602 161.881 201.903 161.307 201.085 160.968C200.267 160.629 199.367 160.541 198.498 160.714C197.631 160.886 196.833 161.313 196.208 161.938L198.771 169.535ZM211.074 167.527L211.073 167.527C210.188 167.527 209.322 167.264 208.587 166.773L208.586 166.773C207.851 166.281 207.276 165.583 206.937 164.765C206.598 163.947 206.51 163.048 206.683 162.179M211.074 167.527L210.316 159.255C209.565 159.403 208.874 159.773 208.333 160.315L207.909 159.889C207.908 159.889 207.908 159.89 207.908 159.89C207.282 160.514 206.855 161.312 206.683 162.179M211.074 167.527C212.26 167.525 213.397 167.054 214.237 166.216L214.238 166.215C215.076 165.376 215.547 164.24 215.549 163.053V163.053C215.549 162.168 215.286 161.303 214.795 160.567L214.795 160.567C214.302 159.832 213.604 159.258 212.786 158.919C211.968 158.58 211.068 158.492 210.199 158.665L211.074 167.527ZM206.683 162.179L207.272 162.296L206.683 162.18C206.683 162.179 206.683 162.179 206.683 162.179ZM74.9039 194.541L73.5597 186.813L73.5591 186.809C73.3105 185.433 73.4876 184.014 74.0667 182.742L74.0668 182.742C74.6235 181.518 75.5262 180.486 76.6623 179.771H83.0391H84.1136L83.5511 178.855L83.0927 178.109L210.227 155.698L210.228 155.698C211.124 155.539 212.043 155.558 212.93 155.753C213.819 155.949 214.661 156.318 215.406 156.839L215.407 156.84C216.152 157.36 216.788 158.023 217.277 158.79C217.766 159.556 218.098 160.411 218.256 161.305C218.256 161.306 218.256 161.307 218.256 161.308L219.557 169.061L74.9039 194.541ZM72.9678 186.916L72.9677 186.916L72.9678 186.916Z" fill="#EDF2F7" stroke="#808080" stroke-width="1.20193"/>
<path d="M165.389 54.8829L165.389 54.8829C161.377 53.9121 157.832 51.566 155.371 48.2532C152.91 44.9402 151.688 40.8701 151.92 36.7506C152.14 32.8292 153.662 29.0993 156.237 26.1473C164.766 34.0002 171.741 43.3884 176.793 53.8207C173.221 55.4297 169.208 55.8071 165.389 54.8829Z" fill="#EDF2F7" stroke="#808080" stroke-width="1.20193"/>
<path d="M211.014 63.5346C211.413 64.1276 211.821 64.9979 212.181 66.143C211.162 66.8687 210.042 67.4411 208.858 67.8424C208.853 66.9408 208.891 65.7611 209.056 64.7242C209.167 64.0282 209.327 63.4511 209.535 63.0703C209.743 62.6909 209.909 62.6453 210.026 62.6523C210.183 62.6619 210.543 62.8367 211.014 63.5346Z" fill="#EDF2F7" stroke="#808080" stroke-width="1.20193"/>
<path d="M212.864 85.6837C212.351 84.9652 211.797 83.8542 211.259 82.2821C212.619 82.0297 213.892 81.8101 215.1 81.6434C215.268 83.2699 215.183 84.5313 214.951 85.3965C214.676 86.4201 214.28 86.6503 214.078 86.6659C213.904 86.6792 213.473 86.5376 212.864 85.6837Z" fill="#EDF2F7" stroke="#808080" stroke-width="1.20193"/>
<path d="M217.281 130.282L217.287 130.285L217.294 130.288C217.308 130.295 217.418 130.368 217.527 130.649C217.63 130.913 217.705 131.297 217.705 131.787C217.705 132.664 217.465 133.831 216.797 135.144C215.4 134.593 214.05 133.931 212.759 133.163C213.892 131.962 214.888 131.181 215.686 130.73C216.141 130.473 216.514 130.333 216.797 130.277C217.088 130.218 217.232 130.257 217.281 130.282Z" fill="#EDF2F7" stroke="#808080" stroke-width="1.20193"/>
<path d="M206.751 149.95C205.875 150.448 205.347 150.375 205.145 150.241C204.976 150.114 204.719 149.698 204.734 148.7C204.747 147.839 204.965 146.652 205.507 145.118C206.836 145.786 208.108 146.565 209.305 147.448C208.407 148.717 207.508 149.52 206.751 149.95Z" fill="#EDF2F7" stroke="#808080" stroke-width="1.20193"/>
<path d="M159.135 126.491C156.86 128.024 154.755 129.443 153.097 130.567C156.337 124.577 159.353 118.468 162.138 112.254C161.861 113.747 161.559 115.362 161.251 116.958C160.524 120.723 159.751 124.433 159.135 126.491Z" fill="#EDF2F7" stroke="#808080" stroke-width="1.20193"/>
<path d="M119.266 72.873C117.324 73.6043 115.264 73.9691 113.192 73.95C113.605 72.7023 113.7 71.3696 113.465 70.0749C114.197 70.0337 115.187 69.9402 116.186 69.7867C116.891 69.6784 117.612 69.5384 118.258 69.3617C118.531 69.2869 118.799 69.2035 119.051 69.1099C119.093 70.0994 119.167 71.3861 119.266 72.873Z" fill="#EDF2F7" stroke="#808080" stroke-width="1.20193"/>
<path d="M125.413 96.9078L125.413 96.9083C125.44 97.0226 125.423 97.12 125.279 97.2602C125.111 97.4246 124.812 97.5918 124.392 97.7427C123.776 97.9645 123.026 98.1072 122.381 98.1953C122.356 97.8139 122.323 97.373 122.287 96.8814C122.251 96.3862 122.211 95.8396 122.171 95.2504C123.066 95.4164 123.806 95.6665 124.358 95.9518C125.087 96.3285 125.364 96.6976 125.413 96.9078Z" fill="#EDF2F7" stroke="#808080" stroke-width="1.20193"/>
<path d="M104.763 95.1913L104.763 95.1907C104.726 94.9446 104.821 94.7078 105.211 94.4467C105.47 94.2734 105.815 94.1243 106.217 94.0016V96.4825C105.797 96.28 105.482 96.077 105.253 95.8847C104.895 95.583 104.786 95.3399 104.763 95.1913Z" fill="#EDF2F7" stroke="#808080" stroke-width="1.20193"/>
<path d="M82.4922 177.192C82.0167 176.357 81.6546 175.284 81.4078 174.342C82.5708 174.158 84.3007 173.854 86.3274 173.475C86.2643 174.896 86.0169 176.029 85.6674 176.86C85.2536 177.843 84.7374 178.315 84.2952 178.452C83.9725 178.552 83.693 178.495 83.4065 178.298C83.0962 178.085 82.7859 177.708 82.4922 177.192Z" fill="#EDF2F7" stroke="#808080" stroke-width="1.20193"/>
<path d="M84.8701 157.178C83.5469 157.28 82.3201 157.367 81.2406 157.432C81.4198 156.905 81.6483 156.39 81.928 155.981C82.3355 155.386 82.7513 155.144 83.2081 155.204C83.7069 155.398 84.1368 155.736 84.4424 156.176L84.8701 157.178ZM84.8701 157.178C84.798 156.821 84.6532 156.479 84.4425 156.176L84.8701 157.178Z" fill="#EDF2F7" stroke="#808080" stroke-width="1.20193"/>
<path d="M87.8026 141.719C84.4095 142.427 81.2686 143.016 78.8394 143.469C79.4545 141.981 80.0895 140.535 80.725 139.243C83.0255 140.229 85.3903 141.056 87.8026 141.719Z" fill="#EDF2F7" stroke="#808080" stroke-width="1.20193"/>
<path d="M63.8779 108.641L64.02 108.634L64.0571 108.633L64.0938 108.626C65.6793 108.357 66.8546 107.75 67.453 106.736C68.0555 105.715 67.9668 104.463 67.4452 103.154C66.4094 100.556 63.4964 97.2822 59.1715 93.774L58.729 93.415L58.347 93.8379C56.4251 95.9652 54.1455 97.74 51.6114 99.082L50.9665 99.4235L51.4253 99.991C52.1562 100.895 52.9395 102.007 53.2998 102.813C53.3835 103 53.4359 103.153 53.462 103.27C53.4289 103.265 53.3898 103.258 53.3441 103.248L53.3441 103.248L53.3355 103.247C52.2886 103.037 51.4231 103.127 50.8182 103.508C50.1768 103.911 49.9197 104.59 50.0567 105.267C50.3166 106.552 51.8451 107.561 53.9918 107.438C54.0039 107.445 54.0204 107.456 54.0417 107.471C54.133 107.537 54.2615 107.657 54.4216 107.847C54.7395 108.225 55.1264 108.814 55.5374 109.607C56.3054 111.089 57.1291 113.226 57.7357 115.885C53.7323 116.993 49.4528 116.585 45.7228 114.728C41.8284 112.79 38.8344 109.422 37.367 105.328L37.0175 104.353L36.3445 105.141C34.8623 106.875 32.7661 107.968 30.4951 108.191C28.2255 108.413 25.9578 107.75 24.1669 106.339C23.2304 105.579 22.4642 104.631 21.9176 103.557C21.3704 102.481 21.0558 101.302 20.994 100.097L63.8779 108.641ZM63.8779 108.641C64.977 108.902 66.1013 109.056 67.2348 109.098C69.1184 106.325 70.1243 103.046 70.1174 99.6893L70.1174 99.6885C70.115 96.1977 69.0295 92.7934 67.0103 89.9449L67.5006 89.5974L67.0103 89.9449C64.9912 87.0965 62.1378 84.9439 58.8433 83.7841C54.6244 82.3012 49.9888 82.5533 45.9557 84.4849C41.9224 86.4167 38.8218 89.87 37.3351 94.0855L36.9765 95.1024L36.3003 94.2625C35.5433 93.3224 34.5969 92.552 33.5225 92.0011L33.5225 92.0011C32.4483 91.4502 31.2699 91.1314 30.0642 91.0653C28.8585 90.9993 27.6525 91.1874 26.5242 91.6175L26.5242 91.6175C25.396 92.0476 24.371 92.71 23.5156 93.5618L23.5156 93.5619C22.6603 94.4135 21.9938 95.4355 21.5594 96.5615L21.5594 96.5616C21.125 97.6874 20.9324 98.8921 20.994 100.097L63.8779 108.641ZM53.969 107.426C53.9677 107.426 53.967 107.426 53.967 107.426L53.969 107.426Z" fill="#EDF2F7" stroke="#808080" stroke-width="1.20193"/>
<path d="M76.5686 179.12C75.2704 179.907 74.2397 181.067 73.6108 182.45C72.982 183.832 72.7843 185.371 73.0434 186.866L79.5187 223.748C79.8693 225.711 80.9848 227.456 82.6204 228.599C84.256 229.742 86.2784 230.189 88.244 229.845L219.249 206.781C220.223 206.61 221.153 206.248 221.987 205.717C222.821 205.186 223.542 204.495 224.108 203.685C224.675 202.875 225.077 201.961 225.29 200.996C225.502 200.032 225.523 199.034 225.349 198.06L218.874 161.179C218.703 160.205 218.341 159.276 217.809 158.442C217.278 157.608 216.587 156.887 215.776 156.322C214.966 155.755 214.051 155.354 213.085 155.141C212.12 154.929 211.122 154.908 210.148 155.082L86.2413 176.926" fill="#EDF2F7"/>
<path d="M76.5686 179.12C75.2704 179.907 74.2397 181.067 73.6108 182.45C72.982 183.832 72.7843 185.371 73.0434 186.866L79.5187 223.748C79.8693 225.711 80.9848 227.456 82.6204 228.599C84.256 229.742 86.2784 230.189 88.244 229.845L219.249 206.781C220.223 206.61 221.153 206.248 221.987 205.717C222.821 205.186 223.542 204.495 224.108 203.685C224.675 202.875 225.077 201.961 225.29 200.996C225.502 200.032 225.523 199.034 225.349 198.06L218.874 161.179C218.703 160.205 218.341 159.276 217.809 158.442C217.278 157.608 216.587 156.887 215.776 156.322C214.966 155.755 214.051 155.354 213.085 155.141C212.12 154.929 211.122 154.908 210.148 155.082L86.2413 176.926" stroke="#808080" stroke-width="1.20193" stroke-linecap="round" stroke-linejoin="round"/>
<path d="M74.4951 195.212L220.325 169.5Z" fill="#EDF2F7"/>
<path d="M74.4951 195.212L220.325 169.5" stroke="#808080" stroke-width="1.20193" stroke-linecap="round" stroke-linejoin="round"/>
<path d="M212.566 181.311L85.793 203.646L88.2754 217.722L215.048 195.387L212.566 181.311Z" fill="#EDF2F7" stroke="#808080" stroke-width="1.20193" stroke-linecap="round" stroke-linejoin="round"/>
<path d="M177.748 133.392C171.969 145.672 163.61 156.44 153.348 165.027ZM183.298 69.4988C177.562 48.4964 164.616 30.1802 146.727 17.7585C128.838 5.33681 107.147 -0.398729 85.4531 1.55656C63.7588 3.51178 43.4442 13.0333 28.0675 28.4532C12.6907 43.8731 3.23195 64.2085 1.34788 85.8977C-0.536193 107.587 5.27452 129.247 17.7623 147.086C30.2502 164.923 48.6189 177.801 69.6515 183.464C70.7706 183.765 71.8934 184.045 73.0194 184.304" fill="#EDF2F7"/>
<path d="M177.748 133.392C171.969 145.672 163.61 156.44 153.348 165.027M183.298 69.4988C177.562 48.4964 164.616 30.1802 146.727 17.7585C128.838 5.33681 107.147 -0.398729 85.4531 1.55656C63.7588 3.51178 43.4442 13.0333 28.0675 28.4532C12.6907 43.8731 3.23195 64.2085 1.34788 85.8977C-0.536193 107.587 5.27452 129.247 17.7623 147.086C30.2502 164.923 48.6189 177.801 69.6515 183.464C70.7706 183.765 71.8934 184.045 73.0194 184.304" stroke="#808080" stroke-width="1.20193" stroke-linecap="round" stroke-linejoin="round"/>
<path d="M186.548 95.4111C186.49 99.1813 186.207 102.945 185.698 106.681Z" fill="#EDF2F7"/>
<path d="M186.548 95.4111C186.49 99.1813 186.207 102.945 185.698 106.681" stroke="#808080" stroke-width="1.20193" stroke-linecap="round" stroke-linejoin="round"/>
<path d="M169.548 55.9804C179.627 55.9804 187.798 47.8136 187.798 37.7394C187.798 27.6651 179.627 19.4984 169.548 19.4984C159.468 19.4984 151.297 27.6651 151.297 37.7394C151.297 47.8136 159.468 55.9804 169.548 55.9804Z" fill="#EDF2F7" stroke="#808080" stroke-width="1.20193" stroke-linecap="round" stroke-linejoin="round"/>
<path d="M55.8682 53.6067L70.9187 50.958Z" fill="#EDF2F7"/>
<path d="M55.8682 53.6067L70.9187 50.958" stroke="#808080" stroke-width="1.20193" stroke-linecap="round" stroke-linejoin="round"/>
<path d="M75.1697 74.9963L60.1191 77.645Z" fill="#EDF2F7"/>
<path d="M75.1697 74.9963L60.1191 77.645" stroke="#808080" stroke-width="1.20193" stroke-linecap="round" stroke-linejoin="round"/>
<path d="M62.3443 77.2448C61.9095 74.9861 61.9682 72.6601 62.5163 70.4261C63.0642 68.1922 64.0887 66.1028 65.5194 64.3012C66.9501 62.4996 67.9745 60.4102 68.5225 58.1763C69.0706 55.9423 69.1291 53.6163 68.6945 51.3575" fill="#EDF2F7"/>
<path d="M62.3443 77.2448C61.9095 74.9861 61.9682 72.6601 62.5163 70.4261C63.0642 68.1922 64.0887 66.1028 65.5194 64.3012C66.9501 62.4996 67.9745 60.4102 68.5225 58.1763C69.0706 55.9423 69.1291 53.6163 68.6945 51.3575" stroke="#808080" stroke-width="1.20193" stroke-linecap="round" stroke-linejoin="round"/>
<path d="M72.9431 75.371C72.5888 73.099 71.746 70.9307 70.4728 69.0153C69.1996 67.1001 67.5262 65.4834 65.5679 64.2765C63.6027 63.0781 61.921 61.4677 60.639 59.5567C59.3571 57.6455 58.5052 55.4791 58.1426 53.2069" fill="#EDF2F7"/>
<path d="M72.9431 75.371C72.5888 73.099 71.746 70.9307 70.4728 69.0153C69.1996 67.1001 67.5262 65.4834 65.5679 64.2765C63.6027 63.0781 61.921 61.4677 60.639 59.5567C59.3571 57.6455 58.5052 55.4791 58.1426 53.2069" stroke="#808080" stroke-width="1.20193" stroke-linecap="round" stroke-linejoin="round"/>
<path d="M217.749 108.055L224.424 106.881Z" fill="#EDF2F7"/>
<path d="M217.749 108.055L224.424 106.881" stroke="#808080" stroke-width="1.20193" stroke-linecap="round" stroke-linejoin="round"/>
<path d="M236.249 104.806L242.924 103.632Z" fill="#EDF2F7"/>
<path d="M236.249 104.806L242.924 103.632" stroke="#808080" stroke-width="1.20193" stroke-linecap="round" stroke-linejoin="round"/>
<path d="M228.125 93.2621L229.299 99.9338Z" fill="#EDF2F7"/>
<path d="M228.125 93.2621L229.299 99.9338" stroke="#808080" stroke-width="1.20193" stroke-linecap="round" stroke-linejoin="round"/>
<path d="M231.375 111.753L232.549 118.425Z" fill="#EDF2F7"/>
<path d="M231.375 111.753L232.549 118.425" stroke="#808080" stroke-width="1.20193" stroke-linecap="round" stroke-linejoin="round"/>
<path d="M219.873 98.5095L225.423 102.408Z" fill="#EDF2F7"/>
<path d="M219.873 98.5095L225.423 102.408" stroke="#808080" stroke-width="1.20193" stroke-linecap="round" stroke-linejoin="round"/>
<path d="M235.275 109.279L240.826 113.177Z" fill="#EDF2F7"/>
<path d="M235.275 109.279L240.826 113.177" stroke="#808080" stroke-width="1.20193" stroke-linecap="round" stroke-linejoin="round"/>
<path d="M237.674 95.3861L233.799 100.908Z" fill="#EDF2F7"/>
<path d="M237.674 95.3861L233.799 100.908" stroke="#808080" stroke-width="1.20193" stroke-linecap="round" stroke-linejoin="round"/>
<path d="M226.899 110.753L223.023 116.301Z" fill="#EDF2F7"/>
<path d="M226.899 110.753L223.023 116.301" stroke="#808080" stroke-width="1.20193" stroke-linecap="round" stroke-linejoin="round"/>
<path d="M41.9941 207.531L55.5946 188.14Z" fill="#EDF2F7"/>
<path d="M41.9941 207.531L55.5946 188.14" stroke="#808080" stroke-width="1.20193" stroke-linecap="round" stroke-linejoin="round"/>
<path d="M39.0918 191.039L58.5175 204.632Z" fill="#EDF2F7"/>
<path d="M39.0918 191.039L58.5175 204.632" stroke="#808080" stroke-width="1.20193" stroke-linecap="round" stroke-linejoin="round"/>
<path d="M192.521 227.696L188.948 225.672L190.972 222.099" fill="#EDF2F7"/>
<path d="M192.521 227.696L188.948 225.672L190.972 222.099" stroke="#808080" stroke-width="1.20193" stroke-linecap="round" stroke-linejoin="round"/>
<path d="M188.948 225.672C189.839 225.218 190.823 224.979 191.823 224.972C193.075 224.972 194.297 225.343 195.338 226.038C196.377 226.732 197.188 227.72 197.667 228.874C198.146 230.03 198.271 231.301 198.027 232.528C197.783 233.753 197.18 234.881 196.296 235.764C195.412 236.648 194.284 237.25 193.058 237.495C191.83 237.738 190.559 237.613 189.402 237.135C188.247 236.656 187.259 235.846 186.564 234.807C185.869 233.767 185.498 232.545 185.498 231.294" fill="#EDF2F7"/>
<path d="M188.948 225.672C189.839 225.218 190.823 224.979 191.823 224.972C193.075 224.972 194.297 225.343 195.338 226.038C196.377 226.732 197.188 227.72 197.667 228.874C198.146 230.03 198.271 231.301 198.027 232.528C197.783 233.753 197.18 234.881 196.296 235.764C195.412 236.648 194.284 237.25 193.058 237.495C191.83 237.738 190.559 237.613 189.402 237.135C188.247 236.656 187.259 235.846 186.564 234.807C185.869 233.767 185.498 232.545 185.498 231.294" stroke="#808080" stroke-width="1.20193" stroke-linecap="round" stroke-linejoin="round"/>
<path d="M63.2705 108.15C70.1629 112.793 83.6002 109.299 103.969 104.607Z" fill="#EDF2F7"/>
<path d="M63.2705 108.15C70.1629 112.793 83.6002 109.299 103.969 104.607" stroke="#808080" stroke-width="1.20193" stroke-linecap="round" stroke-linejoin="round"/>
<path d="M106.821 93.212C105.346 93.5118 103.984 94.1326 104.171 95.261C104.385 96.5577 106.871 98.1069 114.246 98.7343C122.746 99.4563 125.936 98.3397 126.021 97.0351C126.088 96.0106 124.296 94.8862 121.496 94.5363" fill="#EDF2F7"/>
<path d="M106.821 93.212C105.346 93.5118 103.984 94.1326 104.171 95.261C104.385 96.5577 106.871 98.1069 114.246 98.7343C122.746 99.4563 125.936 98.3397 126.021 97.0351C126.088 96.0106 124.296 94.8862 121.496 94.5363" stroke="#808080" stroke-width="1.20193" stroke-linecap="round" stroke-linejoin="round"/>
<path d="M108.569 65.8255C114.144 65.694 114.795 76.8083 108.594 76.7951C103.044 76.7885 103.099 65.9491 108.569 65.8255Z" fill="#EDF2F7" stroke="#808080" stroke-width="1.20193" stroke-linecap="round" stroke-linejoin="round"/>
<path d="M121.82 98.8593C121.522 93.9118 119.645 71.8476 119.645 67.6747C119.645 63.5267 122.581 58.1215 123.395 56.78C124.281 55.3215 124.281 53.6815 124.12 49.6782C124.05 47.9291 122.656 47.8752 121.445 51.8772C120.357 55.4714 116.05 58.4739 116.22 51.5523C116.321 47.5293 116.966 41.9518 117.095 40.4328C117.358 37.308 115.687 37.0384 114.745 40.4328C113.814 43.5898 113.055 46.7945 112.47 50.0333" fill="#EDF2F7"/>
<path d="M121.82 98.8593C121.522 93.9118 119.645 71.8476 119.645 67.6747C119.645 63.5267 122.581 58.1215 123.395 56.78C124.281 55.3215 124.281 53.6815 124.12 49.6782C124.05 47.9291 122.656 47.8752 121.445 51.8772C120.357 55.4714 116.05 58.4739 116.22 51.5523C116.321 47.5293 116.966 41.9518 117.095 40.4328C117.358 37.308 115.687 37.0384 114.745 40.4328C113.814 43.5898 113.055 46.7945 112.47 50.0333" stroke="#808080" stroke-width="1.20193" stroke-linecap="round" stroke-linejoin="round"/>
<path d="M112.545 49.4088C112.22 45.4633 112.22 40.5881 112.195 39.0639C112.145 35.9654 110.412 35.9391 109.845 39.3387C109.262 42.8357 108.645 48.2344 108.57 50.4333" fill="#EDF2F7"/>
<path d="M112.545 49.4088C112.22 45.4633 112.22 40.5881 112.195 39.0639C112.145 35.9654 110.412 35.9391 109.845 39.3387C109.262 42.8357 108.645 48.2344 108.57 50.4333" stroke="#808080" stroke-width="1.20193" stroke-linecap="round" stroke-linejoin="round"/>
<path d="M108.695 48.5129C108.013 44.6543 107.792 41.8978 107.618 40.4143C107.269 37.3408 105.529 37.5144 105.32 40.964C105.107 44.5337 105.09 48.1122 105.27 51.6838" fill="#EDF2F7"/>
<path d="M108.695 48.5129C108.013 44.6543 107.792 41.8978 107.618 40.4143C107.269 37.3408 105.529 37.5144 105.32 40.964C105.107 44.5337 105.09 48.1122 105.27 51.6838" stroke="#808080" stroke-width="1.20193" stroke-linecap="round" stroke-linejoin="round"/>
<path d="M105.22 50.6332C104.245 46.86 103.919 44.911 103.641 43.4367C103.088 40.4632 101.579 40.788 101.591 44.1614C101.552 47.6153 101.794 51.0667 102.316 54.4813C102.966 57.3549 105.891 65.7507 106.141 66.8252" fill="#EDF2F7"/>
<path d="M105.22 50.6332C104.245 46.86 103.919 44.911 103.641 43.4367C103.088 40.4632 101.579 40.788 101.591 44.1614C101.552 47.6153 101.794 51.0667 102.316 54.4813C102.966 57.3549 105.891 65.7507 106.141 66.8252" stroke="#808080" stroke-width="1.20193" stroke-linecap="round" stroke-linejoin="round"/>
<path d="M106.821 76.3705C106.821 81.9678 106.771 94.2867 106.821 97.3852Z" fill="#EDF2F7"/>
<path d="M106.821 76.3705C106.821 81.9678 106.771 94.2867 106.821 97.3852" stroke="#808080" stroke-width="1.20193" stroke-linecap="round" stroke-linejoin="round"/>
<path d="M112.72 69.4988C113.97 69.4988 118.145 69.124 119.62 68.1745Z" fill="#EDF2F7"/>
<path d="M112.72 69.4988C113.97 69.4988 118.145 69.124 119.62 68.1745" stroke="#808080" stroke-width="1.20193" stroke-linecap="round" stroke-linejoin="round"/>
<path d="M112.32 74.5212C114.907 74.6721 117.495 74.2453 119.896 73.2719Z" fill="#EDF2F7"/>
<path d="M112.32 74.5212C114.907 74.6721 117.495 74.2453 119.896 73.2719" stroke="#808080" stroke-width="1.20193" stroke-linecap="round" stroke-linejoin="round"/>
<path d="M104.171 95.2609C104.046 97.6847 103.946 105.381 103.921 106.58Z" fill="#EDF2F7"/>
<path d="M104.171 95.2609C104.046 97.6847 103.946 105.381 103.921 106.58" stroke="#808080" stroke-width="1.20193" stroke-linecap="round" stroke-linejoin="round"/>
<path d="M58.4426 116.326C54.4866 117.57 50.2173 117.369 46.3954 115.76C42.5737 114.151 39.4479 111.237 37.5752 107.539C35.7027 103.841 35.2049 99.5982 36.1707 95.5672C37.1365 91.5362 39.5032 87.9791 42.8488 85.5298C46.1945 83.0806 50.3016 81.8984 54.4382 82.1939C58.5747 82.4896 62.4718 84.2437 65.4348 87.1439C68.3977 90.0439 70.2341 93.9014 70.6162 98.0287C70.9984 102.156 69.9018 106.285 67.5219 109.679" fill="#EDF2F7"/>
<path d="M58.4426 116.326C54.4866 117.57 50.2173 117.369 46.3954 115.76C42.5737 114.151 39.4479 111.237 37.5752 107.539C35.7027 103.841 35.2049 99.5982 36.1707 95.5672C37.1365 91.5362 39.5032 87.9791 42.8488 85.5298C46.1945 83.0806 50.3016 81.8984 54.4382 82.1939C58.5747 82.4896 62.4718 84.2437 65.4348 87.1439C68.3977 90.0439 70.2341 93.9014 70.6162 98.0287C70.9984 102.156 69.9018 106.285 67.5219 109.679" stroke="#808080" stroke-width="1.20193" stroke-linecap="round" stroke-linejoin="round"/>
<path d="M85.52 157.73C85.32 155.831 84.145 154.443 82.8884 154.607C81.1896 154.838 79.3895 158.055 79.8382 167.276C80.2646 176.046 82.312 179.205 84.1134 179.07C85.6121 178.958 86.9385 176.696 86.9385 172.723" fill="#EDF2F7"/>
<path d="M85.52 157.73C85.32 155.831 84.145 154.443 82.8884 154.607C81.1896 154.838 79.3895 158.055 79.8382 167.276C80.2646 176.046 82.312 179.205 84.1134 179.07C85.6121 178.958 86.9385 176.696 86.9385 172.723" stroke="#808080" stroke-width="1.20193" stroke-linecap="round" stroke-linejoin="round"/>
<path d="M80.4443 158.08C86.5446 157.805 99.524 156.381 101.045 156.156C102.566 155.931 112.674 148.778 115.396 148.235C116.122 148.09 125.221 148.347 129.446 148.385C131.42 148.402 132.341 150.734 121.171 151.278" fill="#EDF2F7"/>
<path d="M80.4443 158.08C86.5446 157.805 99.524 156.381 101.045 156.156C102.566 155.931 112.674 148.778 115.396 148.235C116.122 148.09 125.221 148.347 129.446 148.385C131.42 148.402 132.341 150.734 121.171 151.278" stroke="#808080" stroke-width="1.20193" stroke-linecap="round" stroke-linejoin="round"/>
<path d="M118.246 150.684C121.446 151.433 127.174 152.29 131.472 152.808C133.473 153.048 132.697 155.731 120.521 154.582" fill="#EDF2F7"/>
<path d="M118.246 150.684C121.446 151.433 127.174 152.29 131.472 152.808C133.473 153.048 132.697 155.731 120.521 154.582" stroke="#808080" stroke-width="1.20193" stroke-linecap="round" stroke-linejoin="round"/>
<path d="M118.246 153.782C121.371 155.007 125.77 156.26 129.825 157.505C131.701 158.081 130.525 160.379 119.575 158.08" fill="#EDF2F7"/>
<path d="M118.246 153.782C121.371 155.007 125.77 156.26 129.825 157.505C131.701 158.081 130.525 160.379 119.575 158.08" stroke="#808080" stroke-width="1.20193" stroke-linecap="round" stroke-linejoin="round"/>
<path d="M117.969 156.706C119.942 158.405 121.723 160.022 124.943 162.428C126.445 163.55 125.307 165.074 115.892 160.129C114.17 159.224 112.816 161.327 111.067 163.452C108.766 166.25 107.967 168.581 101.892 169.824C95.1915 171.2 83.8161 173.397 80.666 173.847" fill="#EDF2F7"/>
<path d="M117.969 156.706C119.942 158.405 121.723 160.022 124.943 162.428C126.445 163.55 125.307 165.074 115.892 160.129C114.17 159.224 112.816 161.327 111.067 163.452C108.766 166.25 107.967 168.581 101.892 169.824C95.1915 171.2 83.8161 173.397 80.666 173.847" stroke="#808080" stroke-width="1.20193" stroke-linecap="round" stroke-linejoin="round"/>
<path d="M104.495 154.307C106.889 151.332 108.804 148.002 110.17 144.437C110.905 142.476 112.92 142.663 111.195 150.234" fill="#EDF2F7"/>
<path d="M104.495 154.307C106.889 151.332 108.804 148.002 110.17 144.437C110.905 142.476 112.92 142.663 111.195 150.234" stroke="#808080" stroke-width="1.20193" stroke-linecap="round" stroke-linejoin="round"/>
<path d="M68.0986 157.106C71.6238 156.556 79.474 155.057 82.9242 154.582Z" fill="#EDF2F7"/>
<path d="M68.0986 157.106C71.6238 156.556 79.474 155.057 82.9242 154.582" stroke="#808080" stroke-width="1.20193" stroke-linecap="round" stroke-linejoin="round"/>
<path d="M84.145 179.095C66.7194 179.095 60.8191 180.169 56.144 173.848C50.974 166.867 56.79 142.013 58.8414 127.715C60.6323 115.221 55.1308 106.784 54.0439 106.855C49.9648 107.105 49.37 103.077 53.2439 103.857C55.2176 104.251 53.4189 101.433 51.9188 99.634C54.5069 98.2389 56.84 96.4157 58.8191 94.2419C68.8892 102.434 70.7445 108.929 60.1941 108.155C62.9607 109.41 65.9564 110.081 68.9944 110.128" fill="#EDF2F7"/>
<path d="M84.145 179.095C66.7194 179.095 60.8191 180.169 56.144 173.848C50.974 166.867 56.79 142.013 58.8414 127.715C60.6323 115.221 55.1308 106.784 54.0439 106.855C49.9648 107.105 49.37 103.077 53.2439 103.857C55.2176 104.251 53.4189 101.433 51.9188 99.634C54.5069 98.2389 56.84 96.4157 58.8191 94.2419C68.8892 102.434 70.7445 108.929 60.1941 108.155C62.9607 109.41 65.9564 110.081 68.9944 110.128" stroke="#808080" stroke-width="1.20193" stroke-linecap="round" stroke-linejoin="round"/>
<path d="M36.7688 93.8855C35.5698 92.4081 33.9424 91.3381 32.1101 90.8228C30.2779 90.3075 28.331 90.3722 26.5372 91.0078C24.7433 91.6436 23.1903 92.8192 22.0921 94.3729C20.9939 95.9267 20.4043 97.7823 20.4043 99.6846C20.4043 101.587 20.9939 103.443 22.0921 104.996C23.1903 106.55 24.7433 107.726 26.5372 108.361C28.331 108.997 30.2779 109.062 32.1101 108.546C33.9424 108.031 35.5698 106.961 36.7688 105.484C35.4689 101.727 35.4689 97.6425 36.7688 93.8855Z" fill="#EDF2F7" stroke="#808080" stroke-width="1.20193" stroke-linecap="round" stroke-linejoin="round"/>
<path d="M73.8428 156.131C75.6382 149.553 78.0749 143.165 81.118 137.062Z" fill="#EDF2F7"/>
<path d="M73.8428 156.131C75.6382 149.553 78.0749 143.165 81.118 137.062" stroke="#808080" stroke-width="1.20193" stroke-linecap="round" stroke-linejoin="round"/>
<path d="M58.668 128.72C68.1012 124.978 75.1159 118.3 76.6594 110.1Z" fill="#EDF2F7"/>
<path d="M58.668 128.72C68.1012 124.978 75.1159 118.3 76.6594 110.1" stroke="#808080" stroke-width="1.20193" stroke-linecap="round" stroke-linejoin="round"/>
<path d="M79.1445 112.602C86.0198 111.328 89.2449 110.029 105.02 117.475C110.171 115.176 124.746 109.079 127.696 108.08" fill="#EDF2F7"/>
<path d="M79.1445 112.602C86.0198 111.328 89.2449 110.029 105.02 117.475C110.171 115.176 124.746 109.079 127.696 108.08" stroke="#808080" stroke-width="1.20193" stroke-linecap="round" stroke-linejoin="round"/>
<path d="M115.845 122.95C142.819 89.1417 147.571 82.2951 152.221 79.5504C156.321 77.1266 158.996 76.277 209.798 62.084" fill="#EDF2F7"/>
<path d="M115.845 122.95C142.819 89.1417 147.571 82.2951 152.221 79.5504C156.321 77.1266 158.996 76.277 209.798 62.084" stroke="#808080" stroke-width="1.20193" stroke-linecap="round" stroke-linejoin="round"/>
<path d="M212.849 66.3989C211.999 63.3741 210.726 61.8551 209.774 62.101C208.4 62.4561 207.519 66.3503 208.899 74.9197C210.347 83.8917 212.574 87.4136 214.099 87.2821C215.324 87.1821 216.124 84.9148 215.599 80.9852" fill="#EDF2F7"/>
<path d="M212.849 66.3989C211.999 63.3741 210.726 61.8551 209.774 62.101C208.4 62.4561 207.519 66.3503 208.899 74.9197C210.347 83.8917 212.574 87.4136 214.099 87.2821C215.324 87.1821 216.124 84.9148 215.599 80.9852" stroke="#808080" stroke-width="1.20193" stroke-linecap="round" stroke-linejoin="round"/>
<path d="M126.019 97.0419C125.624 100.987 124.52 108.011 124.17 109.411Z" fill="#EDF2F7"/>
<path d="M126.019 97.0419C125.624 100.987 124.52 108.011 124.17 109.411" stroke="#808080" stroke-width="1.20193" stroke-linecap="round" stroke-linejoin="round"/>
<path d="M77.8701 144.262C82.9203 143.342 92.2457 141.613 99.9459 139.415C102.134 142.983 104.896 146.166 108.121 148.835" fill="#EDF2F7"/>
<path d="M77.8701 144.262C82.9203 143.342 92.2457 141.613 99.9459 139.415C102.134 142.983 104.896 146.166 108.121 148.835" stroke="#808080" stroke-width="1.20193" stroke-linecap="round" stroke-linejoin="round"/>
<path d="M105.02 117.45C106.845 122.673 105.546 133.717 99.9199 139.413Z" fill="#EDF2F7"/>
<path d="M105.02 117.45C106.845 122.673 105.546 133.717 99.9199 139.413" stroke="#808080" stroke-width="1.20193" stroke-linecap="round" stroke-linejoin="round"/>
<path d="M129.346 152.558C146.521 150.684 158.747 117.475 166.222 101.558C182.773 96.6105 203.423 90.1887 214.119 87.2901" fill="#EDF2F7"/>
<path d="M129.346 152.558C146.521 150.684 158.747 117.475 166.222 101.558C182.773 96.6105 203.423 90.1887 214.119 87.2901" stroke="#808080" stroke-width="1.20193" stroke-linecap="round" stroke-linejoin="round"/>
<path d="M210.474 81.8426C215.608 80.765 220.858 80.3451 226.099 80.5933C229.724 67.7496 231.274 52.2572 231.749 42.3121C218.999 50.9328 219.999 65.2758 208.273 68.6741" fill="#EDF2F7"/>
<path d="M210.474 81.8426C215.608 80.765 220.858 80.3451 226.099 80.5933C229.724 67.7496 231.274 52.2572 231.749 42.3121C218.999 50.9328 219.999 65.2758 208.273 68.6741" stroke="#808080" stroke-width="1.20193" stroke-linecap="round" stroke-linejoin="round"/>
<path d="M217.098 135.891C218.898 132.743 218.397 130.145 217.573 129.744C216.347 129.147 212.573 131.191 208.198 138.365C203.618 145.884 203.615 149.87 204.798 150.727C205.766 151.435 208.023 150.527 210.123 147.329" fill="#EDF2F7"/>
<path d="M217.098 135.891C218.898 132.743 218.397 130.145 217.573 129.744C216.347 129.147 212.573 131.191 208.198 138.365C203.618 145.884 203.615 149.87 204.798 150.727C205.766 151.435 208.023 150.527 210.123 147.329" stroke="#808080" stroke-width="1.20193" stroke-linecap="round" stroke-linejoin="round"/>
<path d="M205.224 144.312C211.699 147.461 212.099 149.884 215.774 152.533C224.799 151.958 242.825 146.686 251 142.932C240 137.735 223.749 140.809 211.824 133.312" fill="#EDF2F7"/>
<path d="M205.224 144.312C211.699 147.461 212.099 149.884 215.774 152.533C224.799 151.958 242.825 146.686 251 142.932C240 137.735 223.749 140.809 211.824 133.312" stroke="#808080" stroke-width="1.20193" stroke-linecap="round" stroke-linejoin="round"/>
<path d="M217.549 129.744C209.249 123.147 179.973 102.389 174.348 99.1092Z" fill="#EDF2F7"/>
<path d="M217.549 129.744C209.249 123.147 179.973 102.389 174.348 99.1092" stroke="#808080" stroke-width="1.20193" stroke-linecap="round" stroke-linejoin="round"/>
<path d="M204.799 150.734C199.373 147.485 168.897 127.645 163.622 124.197C158.672 127.495 153.772 130.844 151.347 132.468" fill="#EDF2F7"/>
<path d="M204.799 150.734C199.373 147.485 168.897 127.645 163.622 124.197C158.672 127.495 153.772 130.844 151.347 132.468" stroke="#808080" stroke-width="1.20193" stroke-linecap="round" stroke-linejoin="round"/>
<path d="M159.622 126.871C160.922 122.773 162.847 111.378 163.701 107.155Z" fill="#EDF2F7"/>
<path d="M159.622 126.871C160.922 122.773 162.847 111.378 163.701 107.155" stroke="#808080" stroke-width="1.20193" stroke-linecap="round" stroke-linejoin="round"/>
<path d="M80.4443 138.44C83.6784 139.871 87.0444 140.985 90.4947 141.763Z" fill="#EDF2F7"/>
<path d="M80.4443 138.44C83.6784 139.871 87.0444 140.985 90.4947 141.763" stroke="#808080" stroke-width="1.20193" stroke-linecap="round" stroke-linejoin="round"/>
<path d="M93.6673 205.115L88.9893 205.938L90.4909 214.452L95.169 213.629L93.6673 205.115Z" fill="#EDF2F7" stroke="#808080" stroke-width="1.20193"/>
<path d="M100.3 203.96L95.6211 204.787L97.1262 213.303L101.805 212.477L100.3 203.96Z" fill="#EDF2F7" stroke="#808080" stroke-width="1.20193"/>
<path d="M106.718 202.816L102.04 203.641L103.542 212.155L108.22 211.332L106.718 202.816Z" fill="#EDF2F7" stroke="#808080" stroke-width="1.20193"/>
<path d="M113.244 201.668L108.566 202.491L110.068 211.007L114.746 210.182L113.244 201.668Z" fill="#EDF2F7" stroke="#808080" stroke-width="1.20193"/>
<path d="M119.878 200.505L115.199 201.331L116.704 209.848L121.383 209.021L119.878 200.505Z" fill="#EDF2F7" stroke="#808080" stroke-width="1.20193"/>
<path d="M126.294 199.368L121.616 200.193L123.118 208.707L127.795 207.884L126.294 199.368Z" fill="#EDF2F7" stroke="#808080" stroke-width="1.20193"/>
<path d="M132.82 198.22L128.143 199.044L129.644 207.558L134.322 206.734L132.82 198.22Z" fill="#EDF2F7" stroke="#808080" stroke-width="1.20193"/>
<path d="M139.346 197.07L134.668 197.895L136.169 206.409L140.848 205.585L139.346 197.07Z" fill="#EDF2F7" stroke="#808080" stroke-width="1.20193"/>
<path d="M145.869 195.922L141.191 196.745L142.693 205.26L147.372 204.436L145.869 195.922Z" fill="#EDF2F7" stroke="#808080" stroke-width="1.20193"/>
<path d="M152.396 194.771L147.718 195.596L149.219 204.11L153.898 203.286L152.396 194.771Z" fill="#EDF2F7" stroke="#808080" stroke-width="1.20193"/>
<path d="M158.92 193.622L154.242 194.446L155.744 202.961L160.423 202.137L158.92 193.622Z" fill="#EDF2F7" stroke="#808080" stroke-width="1.20193"/>
</g>
</svg>
