<svg width="252" height="234" viewBox="0 0 252 234" fill="none" xmlns="http://www.w3.org/2000/svg">
<path d="M94.2674 106.931C93.9805 100.858 93.2169 94.8157 91.9836 88.8612L91.8458 88.1961L91.3966 88.7055C88.1513 92.3852 84.6796 95.8587 81.0018 99.1061C79.1093 99.761 77.3729 100.393 76.0398 100.877C75.9618 100.906 75.8853 100.934 75.8102 100.961L75.6106 101.034L75.5885 101.245C75.2587 104.402 74.7325 117.58 74.627 124.426C74.5086 124.322 74.3782 124.223 74.2394 124.131C73.624 123.723 72.7666 123.382 71.7683 123.102C69.7666 122.539 67.11 122.195 64.4525 122.076C61.7943 121.957 59.1114 122.063 57.0546 122.412C56.0287 122.586 55.1389 122.824 54.482 123.136C54.2835 123.23 54.0959 123.336 53.9293 123.456C54.0355 116.807 54.5132 110.169 55.3603 103.573L55.3606 103.57C55.9619 98.5598 56.4703 95.3233 58.0861 92.5303C59.6987 89.7429 62.4381 87.3605 67.603 84.1432C83.164 74.4638 102.391 67.7693 120.848 67.6721C126.089 67.6722 129.286 68.1836 132.837 71.0494C136.431 73.95 140.392 79.2646 147.067 88.9724L147.336 89.3627L147.619 88.9831C149.294 86.7395 153.971 81.5135 156.705 78.4591C157.297 77.7981 157.797 77.2388 158.157 76.8335C160.99 76.142 164.671 77.3 167.573 79.8081C170.479 82.3188 172.549 86.1371 172.168 90.6621C167.56 97.4243 162.569 103.917 157.219 110.108L157.218 110.109C154.126 113.723 151.262 115.603 148.429 115.851C145.607 116.098 142.706 114.732 139.514 111.588L139.514 111.588C137.555 109.665 133.989 105.139 130.551 100.521C127.118 95.9096 123.839 91.2402 122.458 89.049L121.834 89.2737C122.451 94.0307 122.734 98.825 122.682 103.621C122.619 103.804 122.551 103.983 122.482 104.166C122.457 104.232 122.433 104.298 122.408 104.365C113.162 102.531 102.759 103.018 94.2674 106.931Z" fill="#EDF2F7" stroke="#808080" stroke-width="0.678947"/>
<path d="M155.655 204.559L155.656 204.561C156.936 206.241 158.786 207.825 160.816 209.35C162.07 210.293 163.41 211.225 164.735 212.147C165.549 212.714 166.357 213.276 167.137 213.835C169.2 215.313 171.076 216.774 172.425 218.265C173.357 219.296 174.018 220.319 174.323 221.351C174.042 221.085 173.7 220.816 173.309 220.544C172.265 219.819 170.827 219.05 169.135 218.275C165.749 216.723 161.302 215.126 156.849 213.789C152.397 212.452 147.923 211.37 144.485 210.855C142.768 210.598 141.292 210.48 140.199 210.547C139.654 210.58 139.182 210.661 138.816 210.807C138.816 210.808 138.815 210.808 138.814 210.808C138.934 209.917 139.065 208.861 139.21 207.686C139.279 207.131 139.351 206.549 139.427 205.945C139.711 203.677 140.05 201.094 140.468 198.433C145.032 198.257 149.6 198.633 154.073 199.553C154.014 201.35 154.571 203.116 155.655 204.559Z" fill="#EDF2F7" stroke="#808080" stroke-width="0.678947"/>
<path d="M218.111 17.8652C216.767 16.5474 216.086 15.2436 215.777 13.9474C215.457 12.6046 215.532 11.2463 215.724 9.84477C215.792 9.34707 215.876 8.83667 215.962 8.31962C216.113 7.40666 216.267 6.47296 216.341 5.55178C216.44 4.3208 216.404 3.06333 216.037 1.78754C219.029 3.13873 221.511 5.34199 222.96 7.93312C224.488 10.6669 224.864 13.827 223.49 16.9022L218.111 17.8652Z" fill="#EDF2F7" stroke="#808080" stroke-width="0.678947"/>
<path d="M34.4158 232.336C34.5892 231.939 34.7438 231.479 34.8816 230.967C35.2339 229.661 35.486 227.984 35.6507 226.077C35.9803 222.261 35.9633 217.479 35.6736 212.803C35.3839 208.127 34.8205 203.54 34.0523 200.116C33.6689 198.406 33.2304 196.968 32.7407 195.95C32.4963 195.442 32.2305 195.02 31.9383 194.72C31.9224 194.704 31.9064 194.688 31.8903 194.672C32.6295 194.493 33.4446 194.284 34.3552 194.05C34.8873 193.914 35.4521 193.769 36.0533 193.616C38.0686 193.106 40.5068 192.512 43.5345 191.872C45.1792 196.32 46.1136 200.999 46.3034 205.737C45.2436 206.002 44.2599 206.513 43.4341 207.233C42.5388 208.014 41.8595 209.012 41.4617 210.131C40.8015 211.675 40.3415 213.739 39.922 215.979C39.7762 216.758 39.6352 217.558 39.4924 218.369C39.2209 219.91 38.9428 221.489 38.6121 223.029C38.1081 225.375 37.4892 227.593 36.6065 229.386C36.004 230.61 35.2874 231.618 34.4158 232.336Z" fill="#EDF2F7" stroke="#808080" stroke-width="0.678947"/>
<path d="M187.314 51.169L187.314 51.1692C191.297 54.3827 191.505 58.8367 189.718 62.2014C187.942 65.5452 184.233 67.7574 180.312 66.6458C179.78 65.5876 179.135 64.3704 178.335 62.9104C178.257 61.4579 177.821 60.0468 177.065 58.8035L177.008 58.7103L176.907 58.6676C175.716 58.1609 174.445 57.8682 173.153 57.8023C173.092 54.6933 175.064 51.8678 177.826 50.3723C180.669 48.8333 184.299 48.7307 187.314 51.169Z" fill="#EDF2F7" stroke="#808080" stroke-width="0.678947"/>
<path d="M159.454 59.0346L159.477 59.1051L159.527 59.1596L161.349 61.1451C160.913 62.1129 160.503 62.9426 160.149 63.6602C159.996 63.9703 159.853 64.2594 159.723 64.5296C159.499 64.9954 159.31 65.4085 159.178 65.769C159.048 66.1255 158.961 66.4576 158.961 66.755C158.961 67.6472 159.058 68.5659 159.166 69.585C159.204 69.9469 159.244 70.3216 159.281 70.7122C159.417 72.143 159.525 73.8286 159.427 75.9877C158.924 75.9969 158.423 76.0691 157.936 76.2027L157.838 76.2294L157.771 76.3054C157.257 76.8873 156.432 77.8154 155.434 78.9342C153.157 79.6288 149.794 79.0744 146.925 77.1751C144.036 75.2628 141.683 72.0079 141.491 67.3662C141.274 62.0184 143.822 58.0059 147.213 55.6624C150.567 53.3445 154.71 52.6809 157.802 53.9333L159.454 59.0346Z" fill="#EDF2F7" stroke="#808080" stroke-width="0.678947"/>
<path d="M199.943 80.9183L199.942 80.9187C199.63 81.0834 199.288 81.1827 198.937 81.2106C198.586 81.2384 198.231 81.1943 197.898 81.0804M199.943 80.9183L198.008 80.7591M199.943 80.9183C200.253 80.7538 200.528 80.5272 200.75 80.2522C200.967 79.9824 201.127 79.672 201.221 79.3396C201.35 79.0184 201.412 78.6745 201.405 78.3283C201.397 77.9762 201.319 77.6287 201.171 77.3074C201.025 76.987 200.814 76.6997 200.554 76.4633L200.553 76.4627C200.292 76.2263 199.984 76.0458 199.651 75.9321C199.318 75.8182 198.963 75.7741 198.612 75.8019C198.261 75.8298 197.919 75.9291 197.607 76.0938L197.607 76.0939C197.295 76.2589 197.021 76.4856 196.8 76.7602M199.943 80.9183L197.223 80.2978M197.898 81.0804L198.008 80.7591M197.898 81.0804C197.898 81.0805 197.898 81.0805 197.898 81.0806L198.008 80.7591M197.898 81.0804C197.563 80.9667 197.257 80.7859 196.996 80.5498M198.008 80.7591C197.717 80.6604 197.451 80.5035 197.223 80.2978M196.996 80.5498L197.223 80.2978M196.996 80.5498C196.996 80.5498 196.996 80.5497 196.996 80.5497L197.223 80.2978M196.996 80.5498C196.733 80.3126 196.524 80.0248 196.378 79.7051C196.231 79.3838 196.152 79.0362 196.144 78.6842C196.137 78.338 196.2 77.9941 196.328 77.6728C196.422 77.3405 196.582 77.03 196.8 76.7602M197.223 80.2978C196.996 80.0923 196.814 79.8424 196.686 79.5637C196.559 79.2851 196.49 78.9832 196.484 78.6769C196.477 78.3707 196.534 78.0664 196.65 77.7825C196.731 77.4873 196.872 77.2118 197.064 76.9731M197.223 80.2978L197.765 76.394C197.494 76.5373 197.256 76.7343 197.064 76.9731M196.8 76.7602L197.064 76.9731M196.8 76.7602C196.8 76.7603 196.8 76.7603 196.8 76.7603L197.064 76.9731M162.009 105.426C163.53 103.56 164.93 101.778 166.226 100.097L184.577 105.63L184.888 105.724L184.995 105.417L205.095 47.967L205.219 47.6134L204.855 47.525L141.08 32.05L140.79 31.9796L140.683 32.2583L127.162 67.49C126.414 67.3323 125.657 67.2163 124.896 67.1426C124.533 65.6683 124.235 64.1788 124.002 62.6786C125.113 62.8009 126.14 62.7482 127.015 62.5425C128.003 62.31 128.825 61.8754 129.337 61.2488L129.337 61.2488C129.658 60.8573 129.873 60.2203 130.013 59.3667C130.155 58.5009 130.226 57.3631 130.221 55.9249C130.209 53.0621 129.892 48.9699 129.196 43.3834L134.041 30.9068L134.041 30.9057C134.647 29.3316 135.548 28.1356 136.793 27.4222C138.036 26.7104 139.666 26.4539 141.78 26.8412L208.119 42.6097C208.119 42.6098 208.12 42.6099 208.12 42.6099C211.02 43.3199 212.487 44.5642 213.102 46.0301C213.726 47.5151 213.519 49.3226 212.854 51.2434C212.854 51.2436 212.854 51.2437 212.854 51.2439L193.081 108.114C193.08 108.115 193.08 108.116 193.08 108.117C192.317 110.209 191.116 111.498 189.708 112.147C188.294 112.798 186.626 112.825 184.897 112.305L184.8 112.63L184.897 112.305L162.009 105.426Z" fill="#EDF2F7" stroke="#808080" stroke-width="0.678947"/>
<path d="M166.405 69.2872C165.524 68.4137 164.913 66.9703 164.94 65.0534L169.603 70.1577C168.445 70.4837 167.282 70.1563 166.405 69.2872Z" fill="#EDF2F7" stroke="#808080" stroke-width="0.678947"/>
<path d="M172.259 65.2379L169.372 62.0881C170.596 62.2826 171.617 62.4667 172.228 62.6034C172.289 63.4804 172.3 64.36 172.259 65.2379Z" fill="#EDF2F7" stroke="#808080" stroke-width="0.678947"/>
<path d="M156.124 203.989C155.23 202.73 154.758 201.223 154.773 199.682C156.669 200.155 157.866 200.691 158.59 201.206C159.361 201.755 159.56 202.251 159.56 202.605C159.56 203.012 159.231 203.364 158.502 203.626C157.841 203.864 156.972 203.976 156.124 203.989Z" fill="#EDF2F7" stroke="#808080" stroke-width="0.678947"/>
<path d="M139.776 198.477C138.084 198.627 136.907 198.917 136.139 199.283C135.31 199.678 135.02 200.126 134.987 200.532L139.776 198.477ZM139.776 198.477C139.756 198.611 139.736 198.743 139.717 198.875C139.468 200.554 139.253 202.008 139.084 203.298M139.776 198.477L139.084 203.298M139.084 203.298C137.801 203.015 136.765 202.602 136.054 202.123C135.269 201.594 134.947 201.038 134.987 200.532L139.084 203.298Z" fill="#EDF2F7" stroke="#808080" stroke-width="0.678947"/>
<path d="M39.6054 187.584L39.6056 187.584C40.0384 187.474 40.6133 187.592 41.2861 188.2C41.9126 188.767 42.5971 189.74 43.2727 191.262C41.0291 191.755 39.2619 192.176 37.7921 192.532C37.6711 191.204 37.8442 190.058 38.18 189.201C38.553 188.248 39.098 187.712 39.6054 187.584Z" fill="#EDF2F7" stroke="#808080" stroke-width="0.678947"/>
<path d="M43.889 207.761C44.5927 207.147 45.4212 206.696 46.3153 206.439C46.3264 208.191 46.1534 209.531 45.8793 210.511C45.5807 211.578 45.174 212.178 44.7962 212.447L44.796 212.447C44.5468 212.625 44.3107 212.665 44.0833 212.623C43.8444 212.578 43.5868 212.437 43.3266 212.2C42.8282 211.746 42.3903 211.008 42.1335 210.262C42.5071 209.298 43.1092 208.44 43.8887 207.761L43.889 207.761Z" fill="#EDF2F7" stroke="#808080" stroke-width="0.678947"/>
<path d="M110.38 149.44C112.457 140.903 114.174 133.919 115.84 127.745C115.625 134.802 115.859 146.222 115.972 151.137C113.813 150.449 111.892 149.861 110.38 149.44Z" fill="#EDF2F7" stroke="#808080" stroke-width="0.678947"/>
<path d="M58.7658 125.973C58.6642 126.177 58.524 126.359 58.3534 126.509C56.9622 126.424 55.8049 126.113 55.0173 125.709C54.6106 125.5 54.3184 125.275 54.1399 125.057C53.9635 124.843 53.913 124.657 53.9338 124.502C53.9688 124.261 54.2471 123.888 55.152 123.533C55.9777 123.21 57.234 122.939 59.016 122.795C59.0467 123.86 58.9629 124.925 58.7658 125.973Z" fill="#EDF2F7" stroke="#808080" stroke-width="0.678947"/>
<path d="M71.105 127.247C71.089 126.857 71.074 126.477 71.0595 126.109C71.0217 125.147 70.9873 124.272 70.9465 123.555C72.119 123.819 72.9799 124.139 73.5767 124.474C74.2535 124.854 74.5421 125.225 74.6176 125.511C74.6826 125.758 74.6207 125.963 74.4416 126.163C74.2493 126.377 73.927 126.574 73.5064 126.741C72.7813 127.029 71.8596 127.192 71.105 127.247Z" fill="#EDF2F7" stroke="#808080" stroke-width="0.678947"/>
<path d="M92.5177 95.6229C89.2043 96.4465 85.9271 97.4089 82.6949 98.5076C85.7673 95.6979 88.6982 92.737 91.4765 89.6355C91.856 91.5094 92.2135 93.5369 92.5177 95.6229Z" fill="#EDF2F7" stroke="#808080" stroke-width="0.678947"/>
<path d="M122.716 90.6527C123.505 91.8462 124.624 93.4757 125.916 95.3007C125.02 97.5504 124.183 99.6995 123.393 101.791C123.367 98.0686 123.141 94.3506 122.716 90.6527Z" fill="#EDF2F7" stroke="#808080" stroke-width="0.678947"/>
<path d="M156.746 220.574L156.746 220.574C151.975 219.248 147.208 217.615 143.745 215.983C142.01 215.166 140.623 214.358 139.728 213.601C139.279 213.223 138.971 212.871 138.799 212.554C138.631 212.242 138.602 211.983 138.673 211.757C138.705 211.655 138.817 211.522 139.142 211.409C139.461 211.297 139.921 211.228 140.517 211.21C141.707 211.174 143.352 211.34 145.295 211.669C149.175 212.325 154.176 213.616 158.953 215.149C160.641 215.691 165.204 217.274 169 218.998C170.903 219.863 172.587 220.751 173.621 221.55C174.146 221.955 174.458 222.304 174.576 222.581C174.631 222.71 174.636 222.806 174.618 222.88C174.6 222.954 174.549 223.047 174.42 223.152L174.42 223.152C174.31 223.242 174.094 223.335 173.735 223.401C173.385 223.465 172.935 223.497 172.394 223.497C171.314 223.496 169.906 223.364 168.272 223.122C165.008 222.639 160.882 221.724 156.746 220.574Z" fill="#EDF2F7" stroke="#808080" stroke-width="0.678947"/>
<path d="M34.9787 212.321L34.9787 212.321C35.1087 214.252 35.3767 219.37 35.1368 224.106C35.0166 226.476 34.77 228.732 34.3223 230.44C34.0982 231.296 33.8286 231.994 33.5119 232.497C33.2057 232.984 32.8786 233.253 32.5378 233.342C32.3303 233.331 32.0983 233.221 31.8402 232.959C31.5658 232.68 31.2883 232.254 31.0154 231.683C30.4703 230.543 29.9779 228.898 29.5545 226.912C28.7091 222.946 28.1543 217.693 27.9777 212.575C27.8195 207.966 27.9686 203.485 28.4825 200.167C28.7399 198.505 29.0856 197.157 29.5172 196.235C29.9605 195.288 30.4284 194.92 30.8725 194.922V194.922H30.874C31.0249 194.922 31.2073 194.995 31.4238 195.21C31.6413 195.426 31.867 195.761 32.0939 196.218C32.5469 197.131 32.97 198.46 33.3492 200.095C34.1064 203.359 34.6728 207.768 34.9787 212.321Z" fill="#EDF2F7" stroke="#808080" stroke-width="0.678947"/>
<path d="M187.816 144.193L187.816 144.193C191.676 138.776 197.015 134.587 203.196 132.124C209.263 129.707 215.888 129.058 222.307 130.246C216.831 151.407 204.177 169.806 185.894 181.354C182.673 175.674 181.124 169.196 181.428 162.669C181.738 156.025 183.955 149.611 187.816 144.193Z" fill="#EDF2F7" stroke="#808080" stroke-width="0.678947"/>
<path d="M123.959 61.9838C123.875 61.1643 123.816 60.3448 123.772 59.5342C124.876 60.2968 125.941 60.9281 126.852 61.2781C127.29 61.4465 127.712 61.5575 128.097 61.5775C127.851 61.7487 127.563 61.8791 127.225 61.9711C126.444 62.1834 125.387 62.1918 123.959 61.9838Z" fill="#EDF2F7" stroke="#808080" stroke-width="0.678947"/>
<path d="M131.882 32.7152L131.882 32.7161C133.52 34.7774 133.772 37.9116 133.121 40.8468C132.488 43.7036 131.028 46.2406 129.336 47.3167C128.521 46.9385 127.642 46.7166 126.743 46.6634L126.384 46.6422V47.0023C126.384 47.9353 126.206 48.9636 125.965 49.5517C125.906 49.697 125.848 49.8003 125.799 49.8651C125.797 49.8673 125.795 49.8695 125.794 49.8715C125.759 49.8245 125.714 49.7459 125.661 49.621L125.66 49.6193C125.347 48.8828 124.869 48.4226 124.321 48.2913C123.765 48.1579 123.227 48.3872 122.872 48.8395C122.189 49.7089 122.17 51.3376 123.454 53.1985C122.138 54.9599 120.634 56.5722 118.967 58.0064C110.866 63.4056 104.076 66.0158 98.6927 66.7531C93.3056 67.4909 89.3476 66.3523 86.8654 64.2844C84.387 62.2197 83.3381 59.1962 83.8181 56.0566C84.2985 52.9134 86.3171 49.6346 90.0145 47.1103L90.9224 46.4905H89.8231C88.2605 46.4905 87.2737 46.0089 86.7239 45.3457C86.1726 44.6807 86.0108 43.7733 86.2203 42.8183C86.6409 40.9009 88.5453 38.897 91.4439 38.7188L92.3791 38.6613L91.6241 38.1064C88.8821 36.0911 87.853 33.8927 87.9202 31.8713C87.9878 29.8363 89.1689 27.8921 91.0289 26.4044C94.7564 23.423 101.05 22.4003 105.865 26.1479L106.37 26.5411L106.412 25.9023C106.592 23.1603 107.889 21.2429 109.698 20.0935C111.518 18.9375 113.878 18.5464 116.182 18.9182C118.483 19.2898 120.703 20.419 122.244 22.2688C123.781 24.1126 124.663 26.6941 124.261 30.0142L124.21 30.4381L124.634 30.3925C128.275 30.0016 130.572 31.0543 131.882 32.7152Z" fill="#EDF2F7" stroke="#808080" stroke-width="0.678947"/>
<path d="M218.002 18.23C212.127 12.63 217.752 7.02999 215.477 1.17999C222.202 3.85499 226.752 10.73 223.727 17.205L218.002 18.23Z" fill="#EDF2F7" stroke="#808080" stroke-width="0.509211" stroke-linecap="round" stroke-linejoin="round"/>
<path d="M124.625 67.459C125.55 67.5375 126.468 67.6795 127.375 67.884L141 32.38L204.775 47.855L184.675 105.305L166.1 99.705C164.675 101.555 163.125 103.53 161.425 105.605L184.8 112.63C188.375 113.705 191.825 112.555 193.4 108.23L213.175 51.355C214.525 47.455 214.125 43.73 208.2 42.28L141.85 26.509C137.5 25.709 134.975 27.534 133.725 30.784L132.714 33.3845M200.9 79.23C200.818 79.5253 200.678 79.8008 200.486 80.0395C200.293 80.2783 200.054 80.4754 199.784 80.6186C199.513 80.7618 199.216 80.8481 198.911 80.8723C198.605 80.8965 198.297 80.8581 198.008 80.7593C197.717 80.6606 197.451 80.5036 197.224 80.2979C196.996 80.0924 196.814 79.8425 196.687 79.5639C196.559 79.2852 196.491 78.9833 196.484 78.677C196.478 78.3708 196.534 78.0665 196.65 77.7827C196.732 77.4874 196.872 77.2119 197.064 76.9732C197.257 76.7344 197.495 76.5374 197.766 76.3941C198.037 76.251 198.334 76.1647 198.639 76.1404C198.945 76.1162 199.253 76.1547 199.542 76.2535C199.832 76.3523 200.099 76.5093 200.326 76.7148C200.553 76.9203 200.736 77.1702 200.863 77.4489C200.991 77.7275 201.059 78.0294 201.066 78.3357C201.072 78.642 201.016 78.9464 200.9 79.23Z" fill="#EDF2F7"/>
<path d="M124.625 67.459C125.55 67.5375 126.468 67.6795 127.375 67.884L141 32.38L204.775 47.855L184.675 105.305L166.1 99.705C164.675 101.555 163.125 103.53 161.425 105.605L184.8 112.63C188.375 113.705 191.825 112.555 193.4 108.23L213.175 51.355C214.525 47.455 214.125 43.73 208.2 42.28L141.85 26.509C137.5 25.709 134.975 27.534 133.725 30.784L132.714 33.3845M200.9 79.23C200.818 79.5253 200.678 79.8008 200.486 80.0395C200.293 80.2783 200.054 80.4754 199.784 80.6186C199.513 80.7618 199.216 80.8481 198.911 80.8723C198.605 80.8965 198.297 80.8581 198.008 80.7593C197.717 80.6606 197.451 80.5036 197.224 80.2979C196.996 80.0924 196.814 79.8425 196.687 79.5639C196.559 79.2852 196.491 78.9833 196.484 78.677C196.478 78.3708 196.534 78.0665 196.65 77.7827C196.732 77.4874 196.872 77.2119 197.064 76.9732C197.257 76.7344 197.495 76.5374 197.766 76.3941C198.037 76.251 198.334 76.1647 198.639 76.1404C198.945 76.1162 199.253 76.1547 199.542 76.2535C199.832 76.3523 200.099 76.5092 200.326 76.7148C200.553 76.9203 200.736 77.1702 200.863 77.4489C200.991 77.7275 201.059 78.0294 201.066 78.3357C201.072 78.642 201.016 78.9464 200.9 79.23Z" stroke="#808080" stroke-width="0.509211" stroke-linejoin="round"/>
<path d="M4.54883 184.98L21.1488 161.28L4.54883 184.98Z" fill="#EDF2F7"/>
<path d="M4.54883 184.98L21.1488 161.28" stroke="#808080" stroke-width="0.509211" stroke-linecap="round" stroke-linejoin="round"/>
<path d="M1 164.83L24.7 181.43L1 164.83Z" fill="#EDF2F7"/>
<path d="M1 164.83L24.7 181.43" stroke="#808080" stroke-width="0.509211" stroke-linecap="round" stroke-linejoin="round"/>
<path d="M162.477 130.605L178.477 127.78L162.477 130.605Z" fill="#EDF2F7"/>
<path d="M162.477 130.605L178.477 127.78" stroke="#808080" stroke-width="0.509211" stroke-linecap="round" stroke-linejoin="round"/>
<path d="M169.074 121.205L171.874 137.205L169.074 121.205Z" fill="#EDF2F7"/>
<path d="M169.074 121.205L171.874 137.205" stroke="#808080" stroke-width="0.509211" stroke-linecap="round" stroke-linejoin="round"/>
<path d="M216.026 199.28C235.342 199.28 251.001 183.621 251.001 164.305C251.001 144.989 235.342 129.33 216.026 129.33C196.71 129.33 181.051 144.989 181.051 164.305C181.051 183.621 196.71 199.28 216.026 199.28Z" fill="#EDF2F7" stroke="#808080" stroke-width="0.509211" stroke-linecap="round" stroke-linejoin="round"/>
<path d="M37.6242 90.455C45.5218 90.455 51.9242 84.0526 51.9242 76.155C51.9242 68.2573 45.5218 61.855 37.6242 61.855C29.7265 61.855 23.3242 68.2573 23.3242 76.155C23.3242 84.0526 29.7265 90.455 37.6242 90.455Z" fill="#EDF2F7" stroke="#808080" stroke-width="0.509211" stroke-linecap="round" stroke-linejoin="round"/>
<path d="M99.5 191.904C111.074 194.23 122.873 195.252 134.675 194.954L99.5 191.904Z" fill="#EDF2F7"/>
<path d="M99.5 191.904C111.074 194.23 122.873 195.252 134.675 194.954" stroke="#808080" stroke-width="0.509211" stroke-linecap="round" stroke-linejoin="round"/>
<path d="M159.899 192.405C217.693 179.583 243.803 111.505 211.999 54.7974L159.899 192.405ZM67.4237 181.027C40.4506 167.743 19.7358 144.444 9.69874 116.102C-11.4513 58.1024 24.6264 32.4103 58.5737 42.5024C76.2474 47.7563 84.8237 43.1524 85.9237 27.5024C86.9487 12.9274 97.2987 1.99581 128.199 3.87739C154.975 5.50963 185.626 21.2329 202.496 40.8876" fill="#EDF2F7"/>
<path d="M159.899 192.405C217.693 179.583 243.803 111.505 211.999 54.7974M67.4237 181.027C40.4506 167.743 19.7358 144.444 9.69874 116.102C-11.4513 58.1024 24.6264 32.4103 58.5737 42.5024C76.2474 47.7563 84.8237 43.1524 85.9237 27.5024C86.9487 12.9274 97.2987 1.99581 128.199 3.87739C154.975 5.50963 185.626 21.2329 202.496 40.8876" stroke="#808080" stroke-width="0.509211" stroke-linecap="round" stroke-linejoin="round"/>
<path d="M44.8768 12.23L11.8505 18.055C10.5743 18.3014 9.44613 19.0398 8.70968 20.1108C7.9731 21.1817 7.68718 22.4993 7.91363 23.7792C8.14008 25.0591 8.86074 26.1985 9.91995 26.9517C10.9793 27.705 12.2922 28.0114 13.5755 27.805L46.6018 21.98L56.0018 15.28L44.8768 12.23Z" fill="#EDF2F7" stroke="#808080" stroke-width="0.509211" stroke-linecap="round" stroke-linejoin="round"/>
<path d="M13.3984 17.7802L15.1234 27.5301L13.3984 17.7802Z" fill="#EDF2F7"/>
<path d="M13.3984 17.7802L15.1234 27.5301" stroke="#808080" stroke-width="0.509211" stroke-linecap="round" stroke-linejoin="round"/>
<path d="M19.002 16.805L20.702 26.555L19.002 16.805Z" fill="#EDF2F7"/>
<path d="M19.002 16.805L20.702 26.555" stroke="#808080" stroke-width="0.509211" stroke-linecap="round" stroke-linejoin="round"/>
<path d="M44.875 12.23L46.6 21.98L44.875 12.23Z" fill="#EDF2F7"/>
<path d="M44.875 12.23L46.6 21.98" stroke="#808080" stroke-width="0.509211" stroke-linecap="round" stroke-linejoin="round"/>
<path d="M218 18.23C218.1 22.6532 218.509 27.064 219.225 31.43C221.496 44.3353 225.7 57.93 227.875 57.555C230.05 57.18 229.363 42.9498 227.075 30.055C226.264 25.7058 225.145 21.42 223.725 17.23L218 18.23Z" fill="#EDF2F7" stroke="#808080" stroke-width="0.509211" stroke-linecap="round" stroke-linejoin="round"/>
<path d="M218.949 29.83L226.799 28.455L218.949 29.83Z" fill="#EDF2F7"/>
<path d="M218.949 29.83L226.799 28.455" stroke="#808080" stroke-width="0.509211" stroke-linecap="round" stroke-linejoin="round"/>
<path d="M58.4759 126.88C55.5009 126.73 53.4562 125.58 53.6075 124.48C53.7627 123.305 56.5825 122.158 63.8325 122.375C72.0325 122.627 75.068 124.325 75.0075 125.7C74.9654 126.675 73.2075 127.5 70.8075 127.575" fill="#EDF2F7"/>
<path d="M58.4759 126.88C55.5009 126.73 53.4562 125.58 53.6075 124.48C53.7627 123.305 56.5825 122.158 63.8325 122.375C72.0325 122.627 75.068 124.325 75.0075 125.7C74.9654 126.675 73.2075 127.5 70.8075 127.575" stroke="#808080" stroke-width="0.509211" stroke-linecap="round" stroke-linejoin="round"/>
<path d="M147.374 88.755C149.449 85.98 156.074 78.705 157.999 76.505C162.674 75.23 173.324 80.03 172.499 90.78C167.862 97.5719 162.845 104.097 157.474 110.325C151.233 117.585 145.753 118.196 139.274 111.825C135.102 107.722 124.449 92.8773 122.199 89.2247C122.82 94.0156 123.104 98.844 123.049 103.675" fill="#EDF2F7"/>
<path d="M147.374 88.755C149.449 85.98 156.074 78.705 157.999 76.505C162.674 75.23 173.324 80.03 172.499 90.78C167.862 97.5719 162.845 104.097 157.474 110.325C151.233 117.585 145.753 118.196 139.274 111.825C135.102 107.722 124.449 92.8773 122.199 89.2247C122.82 94.0156 123.104 98.844 123.049 103.675" stroke="#808080" stroke-width="0.509211" stroke-linecap="round" stroke-linejoin="round"/>
<path d="M149.924 92.505C134.049 69.155 131.724 67.305 120.874 67.305C103.949 67.305 84.2463 73.326 67.4528 83.83C57.1015 90.3024 56.2976 93.5353 55.0528 103.505C54.1735 110.464 53.6903 117.467 53.6055 124.48" fill="#EDF2F7"/>
<path d="M149.924 92.505C134.049 69.155 131.724 67.305 120.874 67.305C103.949 67.305 84.2463 73.326 67.4528 83.83C57.1015 90.3024 56.2976 93.5353 55.0528 103.505C54.1735 110.464 53.6903 117.467 53.6055 124.48" stroke="#808080" stroke-width="0.509211" stroke-linecap="round" stroke-linejoin="round"/>
<path d="M126.299 95.2301C116.724 119.105 114.208 132.183 101.549 185.098C99.1567 195.13 96.5251 200.094 84.7988 203.483C72.5462 207.022 48.0988 211.958 44.5488 212.908" fill="#EDF2F7"/>
<path d="M126.299 95.2301C116.724 119.105 114.208 132.183 101.549 185.098C99.1567 195.13 96.5251 200.094 84.7988 203.483C72.5462 207.022 48.0988 211.958 44.5488 212.908" stroke="#808080" stroke-width="0.509211" stroke-linecap="round" stroke-linejoin="round"/>
<path d="M37.4996 192.93C37.1049 189.904 38.1996 187.602 39.5246 187.255C41.2483 186.802 43.9773 189.33 45.7746 198.655C47.6773 208.523 46.1694 212.544 44.5496 212.93C43.5233 213.173 42.3496 212.055 41.7746 210.255" fill="#EDF2F7"/>
<path d="M37.4996 192.93C37.1049 189.904 38.1996 187.602 39.5246 187.255C41.2483 186.802 43.9773 189.33 45.7746 198.655C47.6773 208.523 46.1694 212.544 44.5496 212.93C43.5233 213.173 42.3496 212.055 41.7746 210.255" stroke="#808080" stroke-width="0.509211" stroke-linecap="round" stroke-linejoin="round"/>
<path d="M39.5254 187.255C48.2754 185.305 80.2004 178.176 82.3754 177.68L39.5254 187.255Z" fill="#EDF2F7"/>
<path d="M39.5254 187.255C48.2754 185.305 80.2004 178.176 82.3754 177.68" stroke="#808080" stroke-width="0.509211" stroke-linecap="round" stroke-linejoin="round"/>
<path d="M122.65 104.755C105.45 101.255 86.1318 105.983 79.9476 122.33C74.5252 136.681 76.1976 154.78 77.5792 178.73" fill="#EDF2F7"/>
<path d="M122.65 104.755C105.45 101.255 86.1318 105.983 79.9476 122.33C74.5252 136.681 76.1976 154.78 77.5792 178.73" stroke="#808080" stroke-width="0.509211" stroke-linecap="round" stroke-linejoin="round"/>
<path d="M90.127 82.93C92.3579 90.9279 93.65 99.1583 93.977 107.455L90.127 82.93Z" fill="#EDF2F7"/>
<path d="M90.127 82.93C92.3579 90.9279 93.65 99.1583 93.977 107.455" stroke="#808080" stroke-width="0.509211" stroke-linecap="round" stroke-linejoin="round"/>
<path d="M74.9746 125.705C75.0246 119.405 75.5996 104.605 75.9496 101.255C81.489 99.1555 87.1389 97.3612 92.8746 95.88" fill="#EDF2F7"/>
<path d="M74.9746 125.705C75.0246 119.405 75.5996 104.605 75.9496 101.255C81.489 99.1555 87.1389 97.3612 92.8746 95.88" stroke="#808080" stroke-width="0.509211" stroke-linecap="round" stroke-linejoin="round"/>
<path d="M30.8996 194.58C35.4746 194.59 37.7996 233.705 32.5996 233.68C27.3996 233.655 25.3246 194.567 30.8996 194.58Z" fill="#EDF2F7" stroke="#808080" stroke-width="0.509211" stroke-linecap="round" stroke-linejoin="round"/>
<path d="M30.9004 194.58C33.7951 193.93 36.2504 193.133 43.7504 191.48L30.9004 194.58Z" fill="#EDF2F7"/>
<path d="M30.9004 194.58C33.7951 193.93 36.2504 193.133 43.7504 191.48" stroke="#808080" stroke-width="0.509211" stroke-linecap="round" stroke-linejoin="round"/>
<path d="M46.6746 206.005C43.0746 207.058 41.3207 208.783 39.9246 218.155C38.9641 224.602 37.1746 232.505 32.5996 233.681" fill="#EDF2F7"/>
<path d="M46.6746 206.005C43.0746 207.058 41.3207 208.783 39.9246 218.155C38.9641 224.602 37.1746 232.505 32.5996 233.681" stroke="#808080" stroke-width="0.509211" stroke-linecap="round" stroke-linejoin="round"/>
<path d="M139.376 203.705C136.426 203.13 134.565 201.879 134.651 200.53C134.762 198.804 138.028 197.487 147.276 198.23C157.578 199.059 159.876 201.18 159.876 202.605C159.876 203.88 157.771 204.33 155.929 204.33" fill="#EDF2F7"/>
<path d="M139.376 203.705C136.426 203.13 134.565 201.879 134.651 200.53C134.762 198.804 138.028 197.487 147.276 198.23C157.578 199.059 159.876 201.18 159.876 202.605C159.876 203.88 157.771 204.33 155.929 204.33" stroke="#808080" stroke-width="0.509211" stroke-linecap="round" stroke-linejoin="round"/>
<path d="M138.349 211.655C139.549 207.83 176.244 218.855 174.824 223.155C173.722 226.48 136.725 216.83 138.349 211.655Z" fill="#EDF2F7" stroke="#808080" stroke-width="0.509211" stroke-linecap="round" stroke-linejoin="round"/>
<path d="M138.352 211.655C138.777 208.78 139.077 205.505 140.177 198.102L138.352 211.655Z" fill="#EDF2F7"/>
<path d="M138.352 211.655C138.777 208.78 139.077 205.505 140.177 198.102" stroke="#808080" stroke-width="0.509211" stroke-linecap="round" stroke-linejoin="round"/>
<path d="M154.45 199.255C154.425 202.955 155.502 205.208 163.225 210.702C169.277 215.005 175.35 218.577 174.825 223.152" fill="#EDF2F7"/>
<path d="M154.45 199.255C154.425 202.955 155.502 205.208 163.225 210.702C169.277 215.005 175.35 218.577 174.825 223.152" stroke="#808080" stroke-width="0.509211" stroke-linecap="round" stroke-linejoin="round"/>
<path d="M118.799 116.23C129.191 122.851 139.205 130.046 148.799 137.78C158.869 146.162 159.899 149.28 159.899 163.805V202.605" fill="#EDF2F7"/>
<path d="M118.799 116.23C129.191 122.851 139.205 130.046 148.799 137.78C158.869 146.162 159.899 149.28 159.899 163.805V202.605" stroke="#808080" stroke-width="0.509211" stroke-linecap="round" stroke-linejoin="round"/>
<path d="M134.652 200.53C134.827 190.505 134.902 161.451 134.652 157.73C127.102 155.13 115.402 151.205 109.977 149.704" fill="#EDF2F7"/>
<path d="M134.652 200.53C134.827 190.505 134.902 161.451 134.652 157.73C127.102 155.13 115.402 151.205 109.977 149.704" stroke="#808080" stroke-width="0.509211" stroke-linecap="round" stroke-linejoin="round"/>
<path d="M114.825 103.755C104.75 116.23 98.4004 145.08 92.8754 186.005C77.4504 190.855 54.1004 196.28 45.6504 198.03" fill="#EDF2F7"/>
<path d="M114.825 103.755C104.75 116.23 98.4004 145.08 92.8754 186.005C77.4504 190.855 54.1004 196.28 45.6504 198.03" stroke="#808080" stroke-width="0.509211" stroke-linecap="round" stroke-linejoin="round"/>
<path d="M70.6055 123.08C70.8055 127.005 71.2055 137.159 70.6805 139.055C70.1555 140.951 64.5332 150.206 61.1805 154.155C59.0568 156.655 56.4437 157.225 59.1305 152.03C60.7116 148.927 62.0746 145.717 63.2095 142.425C66.3963 133.352 59.6568 131.402 56.9595 134.65C52.8384 139.602 49.7516 140.847 51.3845 136.95C52.3805 134.573 52.9095 133.15 53.6095 131.35C54.3095 129.55 58.8095 127.2 59.1095 126.15C59.35 124.948 59.434 123.722 59.3595 122.5" fill="#EDF2F7"/>
<path d="M70.6055 123.08C70.8055 127.005 71.2055 137.159 70.6805 139.055C70.1555 140.951 64.5332 150.206 61.1805 154.155C59.0568 156.655 56.4437 157.225 59.1305 152.03C60.7116 148.927 62.0746 145.717 63.2095 142.425C66.3963 133.352 59.6568 131.402 56.9595 134.65C52.8384 139.602 49.7516 140.847 51.3845 136.95C52.3805 134.573 52.9095 133.15 53.6095 131.35C54.3095 129.55 58.8095 127.2 59.1095 126.15C59.35 124.948 59.434 123.722 59.3595 122.5" stroke="#808080" stroke-width="0.509211" stroke-linecap="round" stroke-linejoin="round"/>
<path d="M61.5763 146.68C59.5068 148.792 57.1704 150.623 54.6263 152.13C51.525 153.947 50.4513 152.255 54.1 148.855C56.651 146.485 58.9513 143.859 60.9645 141.018" fill="#EDF2F7"/>
<path d="M61.5763 146.68C59.5068 148.792 57.1704 150.623 54.6263 152.13C51.525 153.947 50.4513 152.255 54.1 148.855C56.651 146.485 58.9513 143.859 60.9645 141.018" stroke="#808080" stroke-width="0.509211" stroke-linecap="round" stroke-linejoin="round"/>
<path d="M58.8242 139.205C60.1158 140.487 61.5951 141.563 63.2111 142.398L58.8242 139.205Z" fill="#EDF2F7"/>
<path d="M58.8242 139.205C60.1158 140.487 61.5951 141.563 63.2111 142.398" stroke="#808080" stroke-width="0.509211" stroke-linecap="round" stroke-linejoin="round"/>
<path d="M58.0016 144.78C55.63 145.959 53.1183 146.833 50.5266 147.38C47.1529 148.087 47.6042 146.112 51.1766 144.605C54.0468 143.247 56.7696 141.596 59.3016 139.68" fill="#EDF2F7"/>
<path d="M58.0016 144.78C55.63 145.959 53.1183 146.833 50.5266 147.38C47.1529 148.087 47.6042 146.112 51.1766 144.605C54.0468 143.247 56.7696 141.596 59.3016 139.68" stroke="#808080" stroke-width="0.509211" stroke-linecap="round" stroke-linejoin="round"/>
<path d="M54.6753 142.78C52.8584 143.08 51.0142 143.18 49.1753 143.08C46.7253 142.78 46.024 141.348 49.7503 140.78C52.6817 140.358 55.5313 139.489 58.2003 138.205C58.4894 136.392 59.1623 134.662 60.174 133.13" fill="#EDF2F7"/>
<path d="M54.6753 142.78C52.8584 143.08 51.0142 143.18 49.1753 143.08C46.7253 142.78 46.024 141.348 49.7503 140.78C52.6817 140.358 55.5313 139.489 58.2003 138.205C58.4894 136.392 59.1623 134.662 60.174 133.13" stroke="#808080" stroke-width="0.509211" stroke-linecap="round" stroke-linejoin="round"/>
<path d="M116.35 151.605C116.225 146.18 115.9 130.705 116.35 124.48V151.605Z" fill="#EDF2F7"/>
<path d="M116.35 151.605C116.225 146.18 115.9 130.705 116.35 124.48" stroke="#808080" stroke-width="0.509211" stroke-linecap="round" stroke-linejoin="round"/>
<path d="M81.2012 99.38C84.9083 96.1107 88.4067 92.6121 91.6762 88.905L81.2012 99.38Z" fill="#EDF2F7"/>
<path d="M81.2012 99.38C84.9083 96.1107 88.4067 92.6121 91.6762 88.905" stroke="#808080" stroke-width="0.509211" stroke-linecap="round" stroke-linejoin="round"/>
<path d="M161.75 61.055L159.776 58.905L158.076 53.68L163.151 55.8051L186.921 81.63C187.331 82.0743 187.55 82.6637 187.526 83.2684C187.502 83.8733 187.241 84.4439 186.796 84.855C186.351 85.2662 185.762 85.4839 185.158 85.4605C184.552 85.4371 183.981 85.1743 183.571 84.7301L164.696 64.2037" fill="#EDF2F7"/>
<path d="M161.75 61.055L159.776 58.905L158.076 53.68L163.151 55.8051L186.921 81.63C187.331 82.0743 187.55 82.6637 187.526 83.2684C187.502 83.8733 187.241 84.4439 186.796 84.855C186.351 85.2662 185.762 85.4839 185.158 85.4605C184.552 85.4371 183.981 85.1743 183.571 84.7301L164.696 64.2037" stroke="#808080" stroke-width="0.509211" stroke-linecap="round" stroke-linejoin="round"/>
<path d="M183.325 77.7299C182.528 77.8765 181.787 78.245 181.189 78.7935C180.592 79.3419 180.162 80.0477 179.947 80.8299" fill="#EDF2F7"/>
<path d="M183.325 77.7299C182.528 77.8765 181.787 78.245 181.189 78.7935C180.592 79.3419 180.162 80.0477 179.947 80.8299" stroke="#808080" stroke-width="0.509211" stroke-linecap="round" stroke-linejoin="round"/>
<path d="M184.674 79.205C183.876 79.3519 183.137 79.7209 182.54 80.2692C181.944 80.8176 181.513 81.5231 181.299 82.305" fill="#EDF2F7"/>
<path d="M184.674 79.205C183.876 79.3519 183.137 79.7209 182.54 80.2692C181.944 80.8176 181.513 81.5231 181.299 82.305" stroke="#808080" stroke-width="0.509211" stroke-linecap="round" stroke-linejoin="round"/>
<path d="M159.725 76.305C159.975 71.63 159.275 69.105 159.275 66.73C159.275 65.63 160.802 63.405 162.425 59.405C163.502 56.755 165.623 58.455 164.75 63.33C163.798 68.655 167.15 71.63 170.225 70.255" fill="#EDF2F7"/>
<path d="M159.725 76.305C159.975 71.63 159.275 69.105 159.275 66.73C159.275 65.63 160.802 63.405 162.425 59.405C163.502 56.755 165.623 58.455 164.75 63.33C163.798 68.655 167.15 71.63 170.225 70.255" stroke="#808080" stroke-width="0.509211" stroke-linecap="round" stroke-linejoin="round"/>
<path d="M168.477 61.58C170.302 61.855 171.852 62.13 172.555 62.305C172.655 63.5447 172.655 64.7904 172.555 66.03" fill="#EDF2F7"/>
<path d="M168.477 61.58C170.302 61.855 171.852 62.13 172.555 62.305C172.655 63.5447 172.655 64.7904 172.555 66.03" stroke="#808080" stroke-width="0.509211" stroke-linecap="round" stroke-linejoin="round"/>
<path d="M164.75 57.5616C168.15 57.7116 175.95 58.1616 176.775 58.9866C178.025 60.2366 178.325 66.3366 178.475 68.4866" fill="#EDF2F7"/>
<path d="M164.75 57.5616C168.15 57.7116 175.95 58.1616 176.775 58.9866C178.025 60.2366 178.325 66.3366 178.475 68.4866" stroke="#808080" stroke-width="0.509211" stroke-linecap="round" stroke-linejoin="round"/>
<path d="M178 63.0049C182.375 70.9299 182.425 72.0049 180.525 74.6799L178 63.0049Z" fill="#EDF2F7"/>
<path d="M178 63.0049C182.375 70.9299 182.425 72.0049 180.525 74.6799" stroke="#808080" stroke-width="0.509211" stroke-linecap="round" stroke-linejoin="round"/>
<path d="M177.75 78.4828C175.375 81.5328 172.619 84.3328 172.025 85.8578L177.75 78.4828Z" fill="#EDF2F7"/>
<path d="M177.75 78.4828C175.375 81.5328 172.619 84.3328 172.025 85.8578" stroke="#808080" stroke-width="0.509211" stroke-linecap="round" stroke-linejoin="round"/>
<path d="M119.207 58.2577C120.958 56.7566 122.532 55.0615 123.899 53.205C121.149 49.43 124.214 47.0603 125.374 49.755C126.043 51.3077 126.749 48.93 126.749 47.005C127.664 47.0625 128.559 47.3004 129.381 47.705C134.656 44.63 137.481 28.705 124.606 30.03C126.249 16.405 106.799 14.48 106.074 25.8511C96.1494 18.1511 80.1994 30.1511 91.4244 38.3761C85.3244 38.7511 83.2994 46.8261 89.8244 46.8261C74.7441 57.109 86.6323 80.0208 119.207 58.2577Z" fill="#EDF2F7" stroke="#808080" stroke-width="0.509211" stroke-linecap="round" stroke-linejoin="round"/>
<path d="M104.625 68.955C112.4 64.505 121.525 56.8497 123.9 53.205L104.625 68.955Z" fill="#EDF2F7"/>
<path d="M104.625 68.955C112.4 64.505 121.525 56.8497 123.9 53.205" stroke="#808080" stroke-width="0.509211" stroke-linecap="round" stroke-linejoin="round"/>
<path d="M124.374 67.405C124.042 65.6945 123.792 63.984 123.619 62.259C131.051 63.4432 129.974 59.4576 129.349 47.705" fill="#EDF2F7"/>
<path d="M124.374 67.405C124.042 65.6945 123.792 63.984 123.619 62.259C131.051 63.4432 129.974 59.4576 129.349 47.705" stroke="#808080" stroke-width="0.509211" stroke-linecap="round" stroke-linejoin="round"/>
<path d="M123.62 62.259C123.505 61.1261 123.425 59.9958 123.375 58.855C125.975 60.755 128.375 61.955 129.175 60.755" fill="#EDF2F7"/>
<path d="M123.62 62.259C123.505 61.1261 123.425 59.9958 123.375 58.855C125.975 60.755 128.375 61.955 129.175 60.755" stroke="#808080" stroke-width="0.509211" stroke-linecap="round" stroke-linejoin="round"/>
</svg>
